<?xml version="1.0" encoding="utf-8"?>
<!-- Generator: Adobe Illustrator 26.0.3, SVG Export Plug-In . SVG Version: 6.00 Build 0)  -->
<svg version="1.1" id="Слой_1" xmlns="http://www.w3.org/2000/svg" xmlns:xlink="http://www.w3.org/1999/xlink" x="0px" y="0px"
	 viewBox="0 0 236.11 235.27" style="enable-background:new 0 0 236.11 235.27;" xml:space="preserve">
<style type="text/css">
	.st0{fill:#1D0A00;stroke:#000000;stroke-miterlimit:10;}
	.st1{fill:#FFFFFF;stroke:#000000;stroke-miterlimit:10;}
	.st2{stroke:#000000;stroke-miterlimit:10;}
</style>
<path class="st0" d="M159.42,235.27H75.86C33.96,235.27,0,201.31,0,159.42V75.86C0,33.96,33.96,0,75.86,0h83.56
	c41.89,0,75.86,33.96,75.86,75.86v83.56C235.27,201.31,201.31,235.27,159.42,235.27z"/>
<rect x="140.65" y="10.49" class="st1" width="5.04" height="215.28"/>
<rect x="39.73" y="169.52" class="st1" width="128.77" height="35.62"/>
<rect x="39.73" y="136.67" class="st1" width="128.77" height="25.51"/>
<rect x="79.45" y="184.93" class="st2" width="53.42" height="5.14"/>
<rect x="77.4" y="149.88" class="st2" width="53.42" height="4.61"/>
<rect x="39.73" y="45.77" class="st1" width="10.96" height="87.12"/>
<rect x="39.73" y="32.07" class="st1" width="128.77" height="13.7"/>
<rect x="186.01" y="10.49" class="st1" width="3.6" height="215.28"/>
<rect x="145.69" y="10.49" class="st1" width="40.32" height="3.6"/>
<rect x="145.69" y="222.17" class="st1" width="40.32" height="3.6"/>
</svg>
